<svg version="1.0" xmlns="http://www.w3.org/2000/svg" width="800" height="800" viewBox="0 0 64 64"><g fill="#231F20"><path d="M59 0H5C2.789 0 1 1.789 1 4v20a5.99 5.99 0 003 5.19V60c0 2.211 1.789 4 4 4h48c2.211 0 4-1.789 4-4V29.19A5.992 5.992 0 0063 24V4c0-2.211-1.789-4-4-4zm-8 2v22a4 4 0 01-8 0V2h8zM41 2v22a4 4 0 01-8 0V2h8zM31 2v22a4 4 0 01-8 0V2h8zM21 2v22a4 4 0 01-8 0V2h8zM3 4a2 2 0 012-2h6v22a4 4 0 01-8 0V4zm9 58V38h12v10h-1a1 1 0 100 2h1v12H12zm46-2a2 2 0 01-2 2H26V37c0-.516-.447-1-1-1H11a1 1 0 00-1 1v25H8a2 2 0 01-2-2V29.91c.326.055.658.09 1 .09a5.99 5.99 0 005-2.687C13.074 28.932 14.912 30 17 30s3.926-1.068 5-2.687C23.074 28.932 24.912 30 27 30s3.926-1.068 5-2.687C33.074 28.932 34.912 30 37 30s3.926-1.068 5-2.687C43.074 28.932 44.912 30 47 30s3.926-1.068 5-2.687A5.99 5.99 0 0057 30c.342 0 .674-.035 1-.09V60zm-1-32a4 4 0 01-4-4V2h6a2 2 0 012 2v20a4 4 0 01-4 4z"/><path d="M53 36H29a1 1 0 00-1 1v20a1 1 0 001 1h24a1 1 0 001-1V37a1 1 0 00-1-1zm-1 20H30V38h22v18z"/><path d="M48.293 42.707a.997.997 0 001.414 0 .999.999 0 000-1.414l-1-1a.999.999 0 10-1.414 1.414l1 1zm0 5a.997.997 0 001.414 0 .999.999 0 000-1.414l-6-6a.999.999 0 10-1.414 1.414l6 6z"/></g></svg>