<svg width="800" height="800" viewBox="0 0 24 24" xmlns="http://www.w3.org/2000/svg"><path d="M19.35 8.84a4.781 4.781 0 00-3.239-4.356 4.167 4.167 0 00-8.222 0 4.78 4.78 0 00-3.24 4.356A4.234 4.234 0 006.176 17H11v4H8a1 1 0 000 2h8a1 1 0 000-2h-3v-4h4.823a4.234 4.234 0 001.527-8.16zM17.823 15H13v-1.586l2.707-2.707a1 1 0 00-1.414-1.414L13 10.586V8a1 1 0 00-2 0v2.586L9.707 9.293a1 1 0 00-1.414 1.414L11 13.414V15H6.176a2.228 2.228 0 01-.321-4.424 1 1 0 00.838-1.142 2.735 2.735 0 012.279-3.16 1 1 0 00.857-.989c0-.026 0-.06-.005-.094a2.176 2.176 0 114.352-.008v.049a1 1 0 00.855 1.042 2.736 2.736 0 012.28 3.163 1 1 0 00.838 1.139A2.228 2.228 0 0117.823 15z"/></svg>